HIERARCHY
ROOT Hips
{
  OFFSET 140.902 130.527 146.671
  CHANNELS 6 Xposition Yposition Zposition Zrotation Xrotation Yrotation
  JOINT ToSpine
  {
    OFFSET -2.69724 7.43032 -0.144315
    CHANNELS 3 Zrotation Xrotation Yrotation
    JOINT Spine
    {
      OFFSET -0.0310711 10.7595 1.96963
      CHANNELS 3 Zrotation Xrotation Yrotation
      JOINT Spine1
      {
        OFFSET 13.1342 3.43533 0.764692
        CHANNELS 3 Zrotation Xrotation Yrotation
        JOINT Neck
        {
          OFFSET 29.8703 7.82586 -0.130764
          CHANNELS 3 Zrotation Xrotation Yrotation
          JOINT Head
          {
            OFFSET 9.52751 0.295786 -0.907742
            CHANNELS 3 Zrotation Xrotation Yrotation
            End Site
            {
              OFFSET 16.4037 0.713936 2.7358
            }
          }
        }
        JOINT LeftShoulder
        {
          OFFSET 27.5574 4.95586 2.47156
          CHANNELS 3 Zrotation Xrotation Yrotation
          JOINT LeftArm
          {
            OFFSET 1.20734 -0.998971 20.1238
            CHANNELS 3 Zrotation Xrotation Yrotation
            JOINT LeftForeArm
            {
              OFFSET 26.8049 -0.0536703 -0.155908
              CHANNELS 3 Zrotation Xrotation Yrotation
              JOINT LeftHand
              {
                OFFSET 26.6817 0 0.320147
                CHANNELS 3 Zrotation Xrotation Yrotation
                End Site
                {
                  OFFSET 18.6119 0 0.382219
                }
              }
            }
          }
        }
        JOINT RightShoulder
        {
          OFFSET 27.5927 4.71444 -2.65209
          CHANNELS 3 Zrotation Xrotation Yrotation
          JOINT RightArm
          {
            OFFSET 2.83739 -1.17114 -18.7564
            CHANNELS 3 Zrotation Xrotation Yrotation
            JOINT RightForeArm
            {
              OFFSET 28.839 -0.0548439 1.22491
              CHANNELS 3 Zrotation Xrotation Yrotation
              JOINT RightHand
              {
                OFFSET 26.5114 0 -0.101894
                CHANNELS 3 Zrotation Xrotation Yrotation
                End Site
                {
                  OFFSET 18.2168 0 0
                }
              }
            }
          }
        }
      }
    }
  }
  JOINT LeftUpLeg
  {
    OFFSET -4.76168 -1.9167 -10.2353
    CHANNELS 3 Zrotation Xrotation Yrotation
    JOINT LeftLeg
    {
      OFFSET 2.55951 -42.0585 -8.02213
      CHANNELS 3 Zrotation Xrotation Yrotation
      JOINT LeftFoot
      {
        OFFSET 3.16357 -42.5282 -3.95426
        CHANNELS 3 Zrotation Xrotation Yrotation
        JOINT LeftToeBase
        {
          OFFSET 0.346054 -6.02161 12.8035
          CHANNELS 3 Zrotation Xrotation Yrotation
          End Site
          {
            OFFSET 0.134235 -1.35082 5.13018
          }
        }
      }
    }
  }
  JOINT RightUpLeg
  {
    OFFSET -4.94151 -1.41743 10.6446
    CHANNELS 3 Zrotation Xrotation Yrotation
    JOINT RightLeg
    {
      OFFSET -2.56294 -42.0364 -7.94377
      CHANNELS 3 Zrotation Xrotation Yrotation
      JOINT RightFoot
      {
        OFFSET -3.0952 -42.555 -4.02241
        CHANNELS 3 Zrotation Xrotation Yrotation
        JOINT RightToeBase
        {
          OFFSET -0.0828122 -6.13587 12.8035
          CHANNELS 3 Zrotation Xrotation Yrotation
          End Site
          {
            OFFSET -0.131328 -1.35082 5.13018
          }
        }
      }
    }
  }
}
MOTION
Frames:	17
Frame Time:	0.0333333
-28.8941 80.6215 -38.6122 25.0728 -55.4536 -55.0925 -70.1915 0 88.8779 154.035 68.922 -65.4017 -14.3852 31.3659 2.74407 -177.973 17.9469 177.857 -158.285 57.7452 -175.298 0.308641 -14.1274 -29.0633 -77.074 58.6156 -48.7662 10.6743 7.86535 -53.6262 0.420957 0.000575396 0.35866 -1.90324 9.44601 34.0856 -73.4909 -38.3565 108.733 30.8752 -7.31849 77.8049 0.58676 0.000331183 0.0646654 11.715 14.4428 91.8413 -6.51652 65.8481 2.4961 -0.0263807 -11.296 -0.984892 9.89477 -19.8477 21.074 -39.8555 -3.56208 86.0546 7.85084 68.7011 -3.09259 -5.88087 -33.8378 1.86358 2.00063 -25.5109 -17.9623 
-19.7433 80.521 -27.3402 30.1089 -57.5097 -51.5939 -70.1915 0 88.8779 148.634 73.9935 -60.8967 -9.98359 32.8763 0.751259 -173.611 19.6607 174.389 -157.23 58.7775 -176.905 0.54712 -13.3732 -25.7493 -91.9057 62.4001 -26.9692 10.7682 7.0609 -56.7153 0.420957 0.000575396 0.35866 -1.45358 9.07908 29.8472 -68.5364 -44.4942 111.566 36.7164 -1.7863 87.3979 0.58676 0.000331183 0.0646654 6.6489 16.0281 95.7637 -3.0812 48.9418 -2.59739 -0.768293 -7.3944 -0.623203 11.1174 -21.5893 18.4883 -57.3824 -7.61527 87.4647 5.20895 58.5249 4.57415 -1.97184 -25.2139 1.98271 1.48999 -32.0696 -19.9017 
-9.71354 80.9884 -15.6674 39.5571 -58.6771 -43.9837 -70.1915 0 88.8779 133.809 79.5433 -46.5822 -3.54005 33.7169 -2.21033 -164.638 20.9243 167.083 -151.179 58.8464 177.685 0.529378 -14.1847 -22.7387 -105.057 62.1889 -10.3656 9.76598 5.80922 -59.1472 0.420957 0.000575396 0.35866 -1.2564 8.51755 28.6504 -62.5581 -47.5353 111.592 35.5359 1.95109 92.4999 0.58676 0.000331183 0.0646654 -0.255547 13.4443 97.398 -2.33903 43.0631 -2.18919 -2.36138 -4.65203 -0.246057 11.4958 -22.0983 18.5207 -75.2117 -9.11001 91.1065 1.96526 46.3375 -2.10826 2.82406 -2.12269 -0.00864943 5.33248 -34.2076 5.69062 
-0.63623 81.2366 -5.00878 45.4117 -57.8855 -34.9957 -70.1915 0 88.8779 108.934 81.9561 -19.0448 -1.44139 33.5276 -2.92558 -155.206 21.1314 160.443 -145.57 59.0762 175.368 0.816454 -12.2767 -20.5987 -105.394 60.7012 -10.1927 9.06643 4.8762 -61.5667 0.420957 0.000575396 0.35866 -1.1748 7.05231 31.018 -59.0027 -47.2592 109.232 36.4882 1.36722 91.6221 0.58676 0.000331183 0.0646654 -2.50758 9.84699 91.6482 -3.23287 50.0076 -2.65393 -5.45483 -3.32654 0.196983 8.97336 -18.6881 15.4756 -80.0687 -1.26134 96.9045 2.65437 51.5636 -1.62894 -1.7356 -0.358999 0.393052 2.03504 -21.6459 -21.5245 
7.02508 81.882 4.29847 49.7505 -52.5259 -28.9515 -70.1915 0 88.8779 81.2816 80.3405 5.65786 -1.24699 31.0747 -1.16537 -154.756 22.1738 160.848 -151.507 61.1779 -179.933 0.881823 -11.2763 -25.0375 -101.413 52.4076 -22.9607 9.0522 4.53368 -63.2103 0.420957 0.000575396 0.35866 -1.5781 6.78243 37.7825 -63.5574 -44.1682 101.645 32.9938 -2.00581 86.7089 0.58676 0.000331183 0.0646654 -1.30422 4.16759 90.6333 -6.01022 62.0342 -2.19929 3.18333 -0.52059 -0.525539 7.08676 -15.5811 8.62459 -69.5739 1.29519 89.4539 2.96165 69.2557 -16.7055 -7.66884 -6.53997 1.21329 2.47226 -20.9957 -5.65591 
14.0699 83.82 12.5905 59.4601 -47.9229 -22.1485 -70.1915 0 88.8779 99.2153 78.7935 -21.2436 -4.0025 28.3509 4.34297 -158.446 24.0941 162.275 -153.861 62.8596 179.106 0.736289 -11.7172 -30.7015 -92.6079 44.8997 -50.3382 8.5613 4.3703 -62.7704 0.420957 0.000575396 0.35866 -2.08996 6.90964 44.6112 -74.3778 -35.1341 93.2155 23.1932 -3.88265 80.8481 0.58676 0.000331183 0.0646654 -10.3002 -1.75149 93.1752 -7.64429 65.6579 -2.67582 4.94335 -5.1477 -0.908572 1.21876 -5.01823 7.36095 -57.0823 -3.40271 80.2418 5.24397 83.095 -30.2137 -9.3696 -13.7447 1.31043 2.50039 -20.1914 -0.393045 
19.7646 85.9319 18.8192 64.7665 -44.3696 -15.8226 -70.1915 0 88.8779 124.539 73.7117 -47.5617 -9.67994 26.655 5.40096 -154.348 24.3131 158.543 -149.746 63.1043 176.408 0.585738 -12.4706 -30.6369 -88.372 37.4077 -75.3589 10.3203 3.72194 -69.8912 0.420957 0.000575396 0.35866 -2.00686 7.18541 42.3095 -85.5805 -30.8808 82.6491 21.7434 -0.594885 88.2998 0.58676 0.000331183 0.0646654 -17.9787 -4.12881 91.9349 -8.57772 66.6546 -4.1653 6.95353 -8.17873 -1.13274 1.6992 -6.72704 10.7142 -36.9895 -2.51348 78.1055 100.765 88.135 -118.728 -1.73452 -16.2864 1.40566 2.21598 -17.9922 1.46259 
25.7014 88.6791 25.1067 65.8355 -38.6043 -9.19207 -70.1915 0 88.8779 124.875 69.0742 -44.2147 -11.4697 22.0739 6.1513 -153.846 23.01 159.791 -150.577 61.7472 175.72 -0.126586 -16.2816 -29.5731 -93.1675 26.0674 -92.4908 10.4947 1.98234 -78.8443 0.420957 0.000575396 0.35866 -1.32414 7.36002 32.2963 -96.0231 -26.6398 77.9143 26.5918 4.88061 99.3833 0.58676 0.000331183 0.0646654 -23.8654 -3.6707 87.7224 -8.89536 65.8415 -8.16507 6.49494 -11.0779 -1.1726 2.56645 -8.30894 11.2682 -14.5745 -2.1698 77.7075 102.409 85.4706 -93.8153 -3.08055 -13.38 1.23309 -0.752554 -29.7896 -41.1458 
31.7662 93.1226 32.0215 70.0015 -36.3737 -2.34234 -70.1915 0 88.8779 130.072 62.7408 -50.2489 -15.4558 16.0474 11.1243 -151.931 20.7264 161.628 -149.218 59.1849 174.222 0.378568 -16.6288 -19.8756 -102.832 21.6332 -101.641 10.6295 0.605364 -86.1201 0.420957 0.000575396 0.35866 -0.696563 7.52597 23.1649 -102.582 -19.2323 81.696 25.7107 7.20953 104.323 0.58676 0.000331183 0.0646654 -36.7192 1.74093 86.456 -6.89629 58.7421 -15.2994 4.71711 -11.8775 -1.14772 2.9352 -8.55969 9.38977 0.328004 -3.79844 79.8115 89.6101 86.0397 -85.9823 -3.18064 -13.1695 1.22346 -0.442575 -28.9632 -40.3584 
39.7624 99.7386 38.7861 73.0009 -38.654 4.40768 -70.1915 0 88.8779 136.392 60.7465 -50.6433 -16.2008 14.6771 13.5625 -146.072 19.9601 166.289 -149.358 58.9979 178.788 0.902535 -14.1793 -12.3796 -109.317 19.4996 -107.49 5.99928 0.0844535 -88.5145 0.420957 0.000575396 0.35866 -0.32206 8.44808 17.0777 -108.424 -9.87249 86.2214 25.0497 6.16085 102.653 0.58676 0.000331183 0.0646654 -53.7587 8.19471 84.0367 -3.69044 43.0625 -14.5998 -1.74527 -7.96973 -0.615025 2.53255 -5.92314 1.46586 10.5031 -2.88469 80.0601 110.429 85.6921 -107.237 -4.59522 -13.2314 1.24628 -0.888197 -30.95 -39.701 
48.258 107.908 45.7993 75.0551 -41.747 7.00597 -70.1915 0 88.8779 139.713 61.1329 -46.8055 -16.0579 16.4204 11.2005 -138.271 20.5109 173.737 -154.002 59.9534 -171.344 1.04545 -10.1638 -10.4876 -112.854 16.4663 -110.009 5.06788 0.0692934 -88.5372 0.420957 0.000575396 0.35866 0.254923 9.59591 9.76024 -111.595 -10.1157 91.3432 26.3191 3.65674 97.0947 0.58676 0.000331183 0.0646654 -67.7767 11.2908 93.1219 1.55825 26.0566 -11.9262 -13.9328 15 4.69538 1.93408 -0.542299 -9.26055 18.1535 -3.0832 79.951 149.255 81.387 -146.101 -7.10509 -12.3165 1.26598 -1.01022 -30.7221 -41.1536 
55.0356 115.857 52.5513 72.1975 -38.7222 5.19838 -70.1915 0 88.8779 137.65 61.6209 -42.5179 -18.9561 16.1884 9.88705 -128.119 22.0092 174.677 -156.091 61.7751 -163.938 1.07248 -9.00879 -11.0232 -113.473 13.5218 -113.478 6.61701 0.467457 -85.3498 0.420957 0.000575396 0.35866 0.202531 8.50382 10.4135 -112.617 -7.26621 98.2934 26.4964 0.651223 91.0822 0.58676 0.000331183 0.0646654 -66.3289 12.6823 97.7762 -1.13901 27.5561 -14.6201 -15.8569 20.7735 6.43896 -4.00975 11.2137 -3.46383 25.8418 -8.39411 81.4997 161.618 76.2082 -163.457 -9.80349 -9.3462 1.34803 0.0780534 -30.8504 -32.138 
60.5127 122.235 58.8 72.6264 -32.6965 5.67364 -70.1915 0 88.8779 137.857 61.2239 -43.4339 -18.5406 15.6871 10.2598 -125.495 25.0295 175.293 -162.093 64.7549 -156.999 1.03402 -10.4954 -12.3585 -114.169 13.7611 -114.344 7.35317 1.11997 -80.8238 0.420957 0.000575396 0.35866 0.291088 7.4873 9.2262 -115.564 -5.3493 98.784 27.2171 -0.454004 88.9037 0.58676 0.000331183 0.0646654 -57.5546 11.2471 93.6658 -3.5253 46.5202 -9.30331 -12.4182 17.994 4.84332 -4.68785 11.1329 -1.10142 28.7396 -14.1287 85.0567 165.695 72.5175 -171.005 -7.74393 -10.6356 1.26208 1.36456 -27.0753 -24.9138 
66.1835 128.326 65.4497 75.9532 -31.0385 7.27394 -70.1915 0 88.8779 146.418 59.2976 -50.382 -18.3433 18.6581 8.09599 -125.475 27.1259 174.26 -167.903 66.9426 -151.672 1.00737 -10.9981 -13.5829 -113.515 14.9513 -113.896 8.97392 1.84863 -77.9052 0.420957 0.000575396 0.35866 0.274301 7.05145 9.44412 -119.064 -2.82721 97.3278 26.9353 -0.57206 88.6619 0.58676 0.000331183 0.0646654 -51.2805 11.2054 93.866 -8.00318 65.8612 -4.34323 -6.71852 12.4911 2.46609 -4.35351 10.2752 -0.973852 25.6639 -13.6301 86.3359 167.051 70.9905 -174.159 -9.40642 -11.652 1.3194 1.69868 -25.2621 -22.7335 
72.2343 134.047 72.7149 77.142 -32.1523 7.1091 -70.1915 0 88.8779 152.517 57.4703 -56.2649 -20.4215 21.2673 6.74004 -125.316 27.3875 172.194 -167.806 67.7123 -153.012 1.08033 -9.37797 -13.3393 -110.532 15.6222 -111.566 9.91338 2.57578 -75.0476 0.420957 0.000575396 0.35866 0.216279 8.48977 10.2404 -120.726 -2.248 97.0723 28.205 -1.11195 87.7193 0.58676 0.000331183 0.0646654 -44.1409 12.4461 95.2293 -24.2693 80.2156 13.4888 -5.75731 7.33373 1.58696 -3.22738 10.5062 -5.1542 22.5447 -10.086 86.006 166.637 71.6904 -173.358 -8.55723 -12.7856 1.29959 2.02387 -21.2023 -23.1089 
78.5229 139.044 80.1442 76.363 -31.934 5.71307 -70.1915 0 88.8779 152.951 57.4836 -58.0761 -21.2922 22.287 6.07928 -124.302 26.9368 169.788 -165.237 67.9762 -155.434 1.11782 -8.42296 -13.062 -108.403 15.3787 -107.029 12.8681 3.75172 -73.4639 0.420957 0.000575396 0.35866 0.0608763 8.12201 12.3079 -120.84 -3.49107 100.608 26.4176 -1.9911 85.8007 0.58676 0.000331183 0.0646654 -35.9277 12.0671 95.1215 -101.697 84.9911 86.84 -4.54382 6.43449 1.24799 -1.73828 3.88093 -0.160632 19.6079 -8.05724 86.0132 166.285 73.5103 -174.736 -8.38819 -13.6393 1.30084 2.26904 -17.4085 -14.4709 
84.5509 142.825 87.4392 74.2579 -29.5841 3.92843 -70.1915 0 88.8779 150.015 59.1409 -57.0461 -20.676 22.0193 6.33013 -122.816 27.0489 168.598 -167.015 68.4323 -152.804 1.14693 -8.32985 -14.6033 -105.247 13.6247 -103.355 12.0517 4.59853 -68.9096 0.420957 0.000575396 0.35866 -0.0345377 8.27329 13.5017 -120.58 -3.98305 102.781 26.9964 -2.87452 84.1865 0.58676 0.000331183 0.0646654 -26.6859 9.60041 93.9269 -140.128 81.745 124.721 -3.48281 6.13253 1.01918 0.529853 -1.78273 1.56121 17.3332 -8.32231 86.5793 163.913 76.1099 -171.039 -8.92256 -14.4515 1.30645 2.24612 -18.648 -20.7547 
